<svg xmlns="http://www.w3.org/2000/svg" xmlns:xlink="http://www.w3.org/1999/xlink" xmlns:lucid="lucid" width="1200" height="426.64"><g transform="translate(-160 -320)" lucid:page-tab-id="0_0"><path d="M0 0h1870.87v1322.83H0z" fill="#fff"/><path d="M180 346c0-3.3 2.7-6 6-6h268c3.3 0 6 2.7 6 6v374.64c0 3.3-2.7 6-6 6H186c-3.3 0-6-2.7-6-6z" stroke="#5e5e5e" stroke-width="3" fill="#c1e4f7"/><use xlink:href="#a" transform="matrix(1,0,0,1,192,352) translate(0 24.533368888888884)"/><use xlink:href="#b" transform="matrix(1,0,0,1,192,352) translate(6.35557 57.96444515159435)"/><use xlink:href="#c" transform="matrix(1,0,0,1,192,352) translate(19.555600000000002 57.96444515159435)"/><use xlink:href="#b" transform="matrix(1,0,0,1,192,352) translate(6.35557 84.95111181826103)"/><use xlink:href="#d" transform="matrix(1,0,0,1,192,352) translate(19.555600000000002 84.95111181826103)"/><use xlink:href="#b" transform="matrix(1,0,0,1,192,352) translate(6.35557 111.9377784849277)"/><use xlink:href="#e" transform="matrix(1,0,0,1,192,352) translate(19.555600000000002 111.9377784849277)"/><use xlink:href="#b" transform="matrix(1,0,0,1,192,352) translate(6.35557 138.9244451515944)"/><use xlink:href="#f" transform="matrix(1,0,0,1,192,352) translate(19.555600000000002 138.9244451515944)"/><use xlink:href="#b" transform="matrix(1,0,0,1,192,352) translate(6.35557 165.91111181826108)"/><use xlink:href="#g" transform="matrix(1,0,0,1,192,352) translate(19.555600000000002 165.91111181826108)"/><use xlink:href="#h" transform="matrix(1,0,0,1,192,352) translate(94.41009111111111 165.91111181826108)"/><use xlink:href="#b" transform="matrix(1,0,0,1,192,352) translate(6.35557 192.89777848492776)"/><use xlink:href="#i" transform="matrix(1,0,0,1,192,352) translate(19.555600000000002 192.89777848492776)"/><use xlink:href="#j" transform="matrix(1,0,0,1,192,352) translate(87.9458788888889 192.89777848492776)"/><use xlink:href="#b" transform="matrix(1,0,0,1,192,352) translate(6.35557 219.88444515159443)"/><use xlink:href="#k" transform="matrix(1,0,0,1,192,352) translate(19.555600000000002 219.88444515159443)"/><use xlink:href="#l" transform="matrix(1,0,0,1,192,352) translate(95.49651333333334 219.88444515159443)"/><use xlink:href="#b" transform="matrix(1,0,0,1,192,352) translate(6.35557 246.8711118182611)"/><use xlink:href="#m" transform="matrix(1,0,0,1,192,352) translate(19.555600000000002 246.8711118182611)"/><use xlink:href="#b" transform="matrix(1,0,0,1,192,352) translate(6.35557 273.85777848492774)"/><use xlink:href="#n" transform="matrix(1,0,0,1,192,352) translate(19.555600000000002 273.85777848492774)"/><use xlink:href="#b" transform="matrix(1,0,0,1,192,352) translate(6.35557 300.8444451515944)"/><use xlink:href="#o" transform="matrix(1,0,0,1,192,352) translate(19.555600000000002 300.8444451515944)"/><use xlink:href="#b" transform="matrix(1,0,0,1,192,352) translate(6.35557 327.8311118182611)"/><use xlink:href="#p" transform="matrix(1,0,0,1,192,352) translate(19.555600000000002 327.8311118182611)"/><use xlink:href="#q" transform="matrix(1,0,0,1,192,352) translate(19.555600000000002 354.81777848492777)"/><path d="M462.5 540.48H580" stroke="#5e5e5e" stroke-width="2" fill="none"/><path d="M462.53 541.48h-1.03v-2h1.03" fill="#5e5e5e"/><path d="M595.26 540.48L581 545.12v-9.28z" stroke="#5e5e5e" stroke-width="2" fill="#5e5e5e"/><path d="M600 435.65c0-3.3 2.7-6 6-6h288c3.3 0 6 2.7 6 6V645.3c0 3.32-2.7 6-6 6H606c-3.3 0-6-2.68-6-6z" stroke="#5e5e5e" stroke-width="3" fill="#de5f85"/><g><use xlink:href="#r" transform="matrix(1,0,0,1,612,441.6533301908063) translate(0 22.755591111111105)"/><use xlink:href="#b" transform="matrix(1,0,0,1,612,441.6533301908063) translate(6.35557 54.89778545460881)"/><use xlink:href="#s" transform="matrix(1,0,0,1,612,441.6533301908063) translate(19.555600000000002 54.89778545460881)"/><use xlink:href="#t" transform="matrix(1,0,0,1,612,441.6533301908063) translate(64.75076444444444 54.89778545460881)"/><use xlink:href="#u" transform="matrix(1,0,0,1,612,441.6533301908063) translate(89.62983333333334 54.89778545460881)"/><use xlink:href="#b" transform="matrix(1,0,0,1,612,441.6533301908063) translate(6.35557 81.88445212127549)"/><use xlink:href="#s" transform="matrix(1,0,0,1,612,441.6533301908063) translate(19.555600000000002 81.88445212127549)"/><use xlink:href="#v" transform="matrix(1,0,0,1,612,441.6533301908063) translate(64.75076444444444 81.88445212127549)"/><use xlink:href="#w" transform="matrix(1,0,0,1,612,441.6533301908063) translate(134.28178666666668 81.88445212127549)"/><use xlink:href="#x" transform="matrix(1,0,0,1,612,441.6533301908063) translate(160.35592000000003 81.88445212127549)"/><use xlink:href="#b" transform="matrix(1,0,0,1,612,441.6533301908063) translate(6.35557 108.87111878794217)"/><use xlink:href="#y" transform="matrix(1,0,0,1,612,441.6533301908063) translate(19.555600000000002 108.87111878794217)"/><use xlink:href="#z" transform="matrix(1,0,0,1,612,441.6533301908063) translate(66.16311333333334 108.87111878794217)"/><use xlink:href="#b" transform="matrix(1,0,0,1,612,441.6533301908063) translate(6.35557 135.85778545460886)"/><use xlink:href="#A" transform="matrix(1,0,0,1,612,441.6533301908063) translate(19.555600000000002 135.85778545460886)"/><use xlink:href="#z" transform="matrix(1,0,0,1,612,441.6533301908063) translate(102.6669 135.85778545460886)"/><use xlink:href="#b" transform="matrix(1,0,0,1,612,441.6533301908063) translate(6.35557 162.84445212127554)"/><use xlink:href="#B" transform="matrix(1,0,0,1,612,441.6533301908063) translate(19.555600000000002 162.84445212127554)"/><use xlink:href="#z" transform="matrix(1,0,0,1,612,441.6533301908063) translate(100.92862444444445 162.84445212127554)"/><use xlink:href="#b" transform="matrix(1,0,0,1,612,441.6533301908063) translate(6.35557 189.83111878794222)"/><use xlink:href="#C" transform="matrix(1,0,0,1,612,441.6533301908063) translate(19.555600000000002 189.83111878794222)"/></g><path d="M1040 464.17c0-3.3 2.7-6 6-6h288c3.3 0 6 2.7 6 6V616.8c0 3.3-2.7 6-6 6h-288c-3.3 0-6-2.7-6-6z" stroke="#5e5e5e" stroke-width="3" fill="#ffeca9"/><g><use xlink:href="#D" transform="matrix(1,0,0,1,1052,470.17332670596556) translate(0 20.97781333333333)"/><use xlink:href="#b" transform="matrix(1,0,0,1,1052,470.17332670596556) translate(6.35557 51.831125757623276)"/><use xlink:href="#E" transform="matrix(1,0,0,1,1052,470.17332670596556) translate(19.555600000000002 51.831125757623276)"/><use xlink:href="#b" transform="matrix(1,0,0,1,1052,470.17332670596556) translate(6.35557 78.81779242428995)"/><use xlink:href="#F" transform="matrix(1,0,0,1,1052,470.17332670596556) translate(19.555600000000002 78.81779242428995)"/><use xlink:href="#b" transform="matrix(1,0,0,1,1052,470.17332670596556) translate(6.35557 105.80445909095663)"/><use xlink:href="#G" transform="matrix(1,0,0,1,1052,470.17332670596556) translate(19.555600000000002 105.80445909095663)"/><use xlink:href="#b" transform="matrix(1,0,0,1,1052,470.17332670596556) translate(6.35557 132.79112575762332)"/><use xlink:href="#H" transform="matrix(1,0,0,1,1052,470.17332670596556) translate(19.555600000000002 132.79112575762332)"/></g><path d="M902.5 540.48H1020" stroke="#5e5e5e" stroke-width="2" fill="none"/><path d="M902.53 541.48h-1.03v-2h1.03" fill="#5e5e5e"/><path d="M1035.26 540.48l-14.26 4.64v-9.28z" stroke="#5e5e5e" stroke-width="2" fill="#5e5e5e"/><defs><path d="M230 0l2-204L168 0h-37L68-204 70 0H24v-248h70l56 185 57-185h69V0h-46" id="I"/><path d="M140-251c80 0 125 45 125 126S219 4 139 4C58 4 15-44 15-125s44-126 125-126zm-1 214c52 0 73-35 73-88 0-50-21-86-72-86-52 0-73 35-73 86s22 88 72 88" id="J"/><path d="M24-248c120-7 223 5 221 122C244-46 201 0 124 0H24v-248zM76-40c74 7 117-18 117-86 0-67-45-88-117-82v168" id="K"/><path d="M24 0v-248h195v40H76v63h132v40H76v65h150V0H24" id="L"/><path d="M24 0v-248h52v208h133V0H24" id="M"/><g id="a"><use transform="matrix(0.08518530864197528,0,0,0.08518530864197528,0,0)" xlink:href="#I"/><use transform="matrix(0.08518530864197528,0,0,0.08518530864197528,25.47040728395061,0)" xlink:href="#J"/><use transform="matrix(0.08518530864197528,0,0,0.08518530864197528,49.3222937037037,0)" xlink:href="#K"/><use transform="matrix(0.08518530864197528,0,0,0.08518530864197528,71.3852886419753,0)" xlink:href="#L"/><use transform="matrix(0.08518530864197528,0,0,0.08518530864197528,91.82976271604934,0)" xlink:href="#M"/></g><path d="M62-168c30 0 50 19 50 48S92-70 62-70c-29 0-48-21-48-50s20-48 48-48" id="N"/><use transform="matrix(0.05432111111111112,0,0,0.05432111111111112,0,0)" xlink:href="#N" id="b"/><path d="M190 0L58-211 59 0H30v-248h39L202-35l-2-213h31V0h-41" id="O"/><path d="M205 0l-28-72H64L36 0H1l101-248h38L239 0h-34zm-38-99l-47-123c-12 45-31 82-46 123h93" id="P"/><path d="M240 0l2-218c-23 76-54 145-80 218h-23L58-218 59 0H30v-248h44l77 211c21-75 51-140 76-211h43V0h-30" id="Q"/><path d="M30 0v-248h187v28H63v79h144v27H63v87h162V0H30" id="R"/><g id="c"><use transform="matrix(0.05432111111111112,0,0,0.05432111111111112,0,0)" xlink:href="#O"/><use transform="matrix(0.05432111111111112,0,0,0.05432111111111112,14.06916777777778,0)" xlink:href="#P"/><use transform="matrix(0.05432111111111112,0,0,0.05432111111111112,27.106234444444446,0)" xlink:href="#Q"/><use transform="matrix(0.05432111111111112,0,0,0.05432111111111112,43.34824666666667,0)" xlink:href="#R"/></g><path d="M232-93c-1 65-40 97-104 97C67 4 28-28 28-90v-158h33c8 89-33 224 67 224 102 0 64-133 71-224h33v155" id="S"/><path d="M185-189c-5-48-123-54-124 2 14 75 158 14 163 119 3 78-121 87-175 55-17-10-28-26-33-46l33-7c5 56 141 63 141-1 0-78-155-14-162-118-5-82 145-84 179-34 5 7 8 16 11 25" id="T"/><g id="d"><use transform="matrix(0.05432111111111112,0,0,0.05432111111111112,0,0)" xlink:href="#S"/><use transform="matrix(0.05432111111111112,0,0,0.05432111111111112,14.06916777777778,0)" xlink:href="#T"/><use transform="matrix(0.05432111111111112,0,0,0.05432111111111112,27.106234444444446,0)" xlink:href="#O"/></g><path d="M160-131c35 5 61 23 61 61C221 17 115-2 30 0v-248c76 3 177-17 177 60 0 33-19 50-47 57zm-97-11c50-1 110 9 110-42 0-47-63-36-110-37v79zm0 115c55-2 124 14 124-45 0-56-70-42-124-44v89" id="U"/><path d="M233-177c-1 41-23 64-60 70L243 0h-38l-65-103H63V0H30v-248c88 3 205-21 203 71zM63-129c60-2 137 13 137-47 0-61-80-42-137-45v92" id="V"/><path d="M212-179c-10-28-35-45-73-45-59 0-87 40-87 99 0 60 29 101 89 101 43 0 62-24 78-52l27 14C228-24 195 4 139 4 59 4 22-46 18-125c-6-104 99-153 187-111 19 9 31 26 39 46" id="W"/><path d="M197 0v-115H63V0H30v-248h33v105h134v-105h34V0h-34" id="X"/><g id="e"><use transform="matrix(0.05432111111111112,0,0,0.05432111111111112,0,0)" xlink:href="#U"/><use transform="matrix(0.05432111111111112,0,0,0.05432111111111112,13.037066666666668,0)" xlink:href="#V"/><use transform="matrix(0.05432111111111112,0,0,0.05432111111111112,27.106234444444446,0)" xlink:href="#P"/><use transform="matrix(0.05432111111111112,0,0,0.05432111111111112,40.143301111111114,0)" xlink:href="#O"/><use transform="matrix(0.05432111111111112,0,0,0.05432111111111112,54.21246888888889,0)" xlink:href="#W"/><use transform="matrix(0.05432111111111112,0,0,0.05432111111111112,68.28163666666667,0)" xlink:href="#X"/></g><path d="M33 0v-248h34V0H33" id="Y"/><path d="M30 0v-248h33v221h125V0H30" id="Z"/><g id="f"><use transform="matrix(0.05432111111111112,0,0,0.05432111111111112,0,0)" xlink:href="#R"/><use transform="matrix(0.05432111111111112,0,0,0.05432111111111112,13.037066666666668,0)" xlink:href="#Q"/><use transform="matrix(0.05432111111111112,0,0,0.05432111111111112,29.279078888888893,0)" xlink:href="#P"/><use transform="matrix(0.05432111111111112,0,0,0.05432111111111112,42.316145555555565,0)" xlink:href="#Y"/><use transform="matrix(0.05432111111111112,0,0,0.05432111111111112,47.74825666666668,0)" xlink:href="#Z"/></g><path d="M30-248c87 1 191-15 191 75 0 78-77 80-158 76V0H30v-248zm33 125c57 0 124 11 124-50 0-59-68-47-124-48v98" id="aa"/><path d="M140-251c81 0 123 46 123 126C263-46 219 4 140 4 59 4 17-45 17-125s42-126 123-126zm0 227c63 0 89-41 89-101s-29-99-89-99c-61 0-89 39-89 99S79-25 140-24" id="ab"/><g id="g"><use transform="matrix(0.05432111111111112,0,0,0.05432111111111112,0,0)" xlink:href="#aa"/><use transform="matrix(0.05432111111111112,0,0,0.05432111111111112,13.037066666666668,0)" xlink:href="#X"/><use transform="matrix(0.05432111111111112,0,0,0.05432111111111112,27.106234444444446,0)" xlink:href="#ab"/><use transform="matrix(0.05432111111111112,0,0,0.05432111111111112,42.31614555555556,0)" xlink:href="#O"/><use transform="matrix(0.05432111111111112,0,0,0.05432111111111112,56.38531333333334,0)" xlink:href="#R"/></g><g id="h"><use transform="matrix(0.05432111111111112,0,0,0.05432111111111112,0,0)" xlink:href="#O"/><use transform="matrix(0.05432111111111112,0,0,0.05432111111111112,14.06916777777778,0)" xlink:href="#S"/><use transform="matrix(0.05432111111111112,0,0,0.05432111111111112,28.13833555555556,0)" xlink:href="#Q"/><use transform="matrix(0.05432111111111112,0,0,0.05432111111111112,44.380347777777786,0)" xlink:href="#U"/><use transform="matrix(0.05432111111111112,0,0,0.05432111111111112,57.417414444444454,0)" xlink:href="#R"/><use transform="matrix(0.05432111111111112,0,0,0.05432111111111112,70.45448111111112,0)" xlink:href="#V"/></g><path d="M143 4C61 4 22-44 18-125c-5-107 100-154 193-111 17 8 29 25 37 43l-32 9c-13-25-37-40-76-40-61 0-88 39-88 99 0 61 29 100 91 101 35 0 62-11 79-27v-45h-74v-28h105v86C228-13 192 4 143 4" id="ac"/><g id="i"><use transform="matrix(0.05432111111111112,0,0,0.05432111111111112,0,0)" xlink:href="#Y"/><use transform="matrix(0.05432111111111112,0,0,0.05432111111111112,5.432111111111112,0)" xlink:href="#Q"/><use transform="matrix(0.05432111111111112,0,0,0.05432111111111112,21.674123333333338,0)" xlink:href="#P"/><use transform="matrix(0.05432111111111112,0,0,0.05432111111111112,34.71119,0)" xlink:href="#ac"/><use transform="matrix(0.05432111111111112,0,0,0.05432111111111112,49.92110111111111,0)" xlink:href="#R"/></g><g id="j"><use transform="matrix(0.05432111111111112,0,0,0.05432111111111112,0,0)" xlink:href="#S"/><use transform="matrix(0.05432111111111112,0,0,0.05432111111111112,14.06916777777778,0)" xlink:href="#V"/><use transform="matrix(0.05432111111111112,0,0,0.05432111111111112,28.13833555555556,0)" xlink:href="#Z"/></g><path d="M194 0L95-120 63-95V0H30v-248h33v124l119-124h40L117-140 236 0h-42" id="ad"/><path d="M30-248c118-7 216 8 213 122C240-48 200 0 122 0H30v-248zM63-27c89 8 146-16 146-99s-60-101-146-95v194" id="ae"/><g id="k"><use transform="matrix(0.05432111111111112,0,0,0.05432111111111112,0,0)" xlink:href="#Z"/><use transform="matrix(0.05432111111111112,0,0,0.05432111111111112,10.864222222222224,0)" xlink:href="#Y"/><use transform="matrix(0.05432111111111112,0,0,0.05432111111111112,16.296333333333337,0)" xlink:href="#O"/><use transform="matrix(0.05432111111111112,0,0,0.05432111111111112,30.365501111111115,0)" xlink:href="#ad"/><use transform="matrix(0.05432111111111112,0,0,0.05432111111111112,43.40256777777778,0)" xlink:href="#R"/><use transform="matrix(0.05432111111111112,0,0,0.05432111111111112,56.43963444444445,0)" xlink:href="#ae"/></g><g id="l"><use transform="matrix(0.05432111111111112,0,0,0.05432111111111112,0,0)" xlink:href="#Y"/><use transform="matrix(0.05432111111111112,0,0,0.05432111111111112,5.432111111111112,0)" xlink:href="#O"/></g><g id="m"><use transform="matrix(0.05432111111111112,0,0,0.05432111111111112,0,0)" xlink:href="#T"/><use transform="matrix(0.05432111111111112,0,0,0.05432111111111112,13.037066666666668,0)" xlink:href="#ad"/><use transform="matrix(0.05432111111111112,0,0,0.05432111111111112,26.074133333333336,0)" xlink:href="#Y"/><use transform="matrix(0.05432111111111112,0,0,0.05432111111111112,31.506244444444448,0)" xlink:href="#Z"/><use transform="matrix(0.05432111111111112,0,0,0.05432111111111112,42.37046666666667,0)" xlink:href="#Z"/><use transform="matrix(0.05432111111111112,0,0,0.05432111111111112,53.2346888888889,0)" xlink:href="#T"/></g><path d="M153-248C145-148 188 4 80 4 36 3 13-21 6-62l32-5c4 25 16 42 43 43 27 0 39-20 39-49v-147H72v-28h81" id="af"/><path d="M127-220V0H93v-220H8v-28h204v28h-85" id="ag"/><g id="n"><use transform="matrix(0.05432111111111112,0,0,0.05432111111111112,0,0)" xlink:href="#aa"/><use transform="matrix(0.05432111111111112,0,0,0.05432111111111112,13.037066666666668,0)" xlink:href="#V"/><use transform="matrix(0.05432111111111112,0,0,0.05432111111111112,27.106234444444446,0)" xlink:href="#ab"/><use transform="matrix(0.05432111111111112,0,0,0.05432111111111112,42.31614555555556,0)" xlink:href="#af"/><use transform="matrix(0.05432111111111112,0,0,0.05432111111111112,52.09394555555556,0)" xlink:href="#R"/><use transform="matrix(0.05432111111111112,0,0,0.05432111111111112,65.13101222222222,0)" xlink:href="#W"/><use transform="matrix(0.05432111111111112,0,0,0.05432111111111112,79.20018,0)" xlink:href="#ag"/><use transform="matrix(0.05432111111111112,0,0,0.05432111111111112,91.09650333333335,0)" xlink:href="#T"/></g><g id="o"><use transform="matrix(0.05432111111111112,0,0,0.05432111111111112,0,0)" xlink:href="#ag"/><use transform="matrix(0.05432111111111112,0,0,0.05432111111111112,11.896323333333335,0)" xlink:href="#R"/><use transform="matrix(0.05432111111111112,0,0,0.05432111111111112,24.933390000000003,0)" xlink:href="#W"/><use transform="matrix(0.05432111111111112,0,0,0.05432111111111112,39.00255777777778,0)" xlink:href="#X"/><use transform="matrix(0.05432111111111112,0,0,0.05432111111111112,53.07172555555556,0)" xlink:href="#O"/><use transform="matrix(0.05432111111111112,0,0,0.05432111111111112,67.14089333333334,0)" xlink:href="#ab"/><use transform="matrix(0.05432111111111112,0,0,0.05432111111111112,82.35080444444445,0)" xlink:href="#Z"/><use transform="matrix(0.05432111111111112,0,0,0.05432111111111112,93.21502666666667,0)" xlink:href="#ab"/><use transform="matrix(0.05432111111111112,0,0,0.05432111111111112,108.42493777777779,0)" xlink:href="#ac"/><use transform="matrix(0.05432111111111112,0,0,0.05432111111111112,123.63484888888891,0)" xlink:href="#Y"/><use transform="matrix(0.05432111111111112,0,0,0.05432111111111112,129.06696,0)" xlink:href="#R"/><use transform="matrix(0.05432111111111112,0,0,0.05432111111111112,142.10402666666667,0)" xlink:href="#T"/></g><g id="p"><use transform="matrix(0.05432111111111112,0,0,0.05432111111111112,0,0)" xlink:href="#Y"/><use transform="matrix(0.05432111111111112,0,0,0.05432111111111112,5.432111111111112,0)" xlink:href="#O"/><use transform="matrix(0.05432111111111112,0,0,0.05432111111111112,19.50127888888889,0)" xlink:href="#ag"/><use transform="matrix(0.05432111111111112,0,0,0.05432111111111112,31.397602222222226,0)" xlink:href="#R"/><use transform="matrix(0.05432111111111112,0,0,0.05432111111111112,44.43466888888889,0)" xlink:href="#V"/><use transform="matrix(0.05432111111111112,0,0,0.05432111111111112,58.50383666666667,0)" xlink:href="#R"/><use transform="matrix(0.05432111111111112,0,0,0.05432111111111112,71.54090333333335,0)" xlink:href="#T"/><use transform="matrix(0.05432111111111112,0,0,0.05432111111111112,84.57797000000002,0)" xlink:href="#ag"/><use transform="matrix(0.05432111111111112,0,0,0.05432111111111112,96.47429333333335,0)" xlink:href="#R"/><use transform="matrix(0.05432111111111112,0,0,0.05432111111111112,109.51136000000002,0)" xlink:href="#ae"/></g><g id="q"><use transform="matrix(0.05432111111111112,0,0,0.05432111111111112,0,0)" xlink:href="#ag"/><use transform="matrix(0.05432111111111112,0,0,0.05432111111111112,11.896323333333335,0)" xlink:href="#R"/><use transform="matrix(0.05432111111111112,0,0,0.05432111111111112,24.933390000000003,0)" xlink:href="#W"/><use transform="matrix(0.05432111111111112,0,0,0.05432111111111112,39.00255777777778,0)" xlink:href="#X"/><use transform="matrix(0.05432111111111112,0,0,0.05432111111111112,53.07172555555556,0)" xlink:href="#O"/><use transform="matrix(0.05432111111111112,0,0,0.05432111111111112,67.14089333333334,0)" xlink:href="#ab"/><use transform="matrix(0.05432111111111112,0,0,0.05432111111111112,82.35080444444445,0)" xlink:href="#Z"/><use transform="matrix(0.05432111111111112,0,0,0.05432111111111112,93.21502666666667,0)" xlink:href="#ab"/><use transform="matrix(0.05432111111111112,0,0,0.05432111111111112,108.42493777777779,0)" xlink:href="#ac"/><use transform="matrix(0.05432111111111112,0,0,0.05432111111111112,123.63484888888891,0)" xlink:href="#Y"/><use transform="matrix(0.05432111111111112,0,0,0.05432111111111112,129.06696,0)" xlink:href="#R"/><use transform="matrix(0.05432111111111112,0,0,0.05432111111111112,142.10402666666667,0)" xlink:href="#T"/></g><path d="M67-125c0 53 21 87 73 88 37 1 54-22 65-47l45 17C233-25 199 4 140 4 58 4 20-42 15-125 8-235 124-281 211-232c18 10 29 29 36 50l-46 12c-8-25-30-41-62-41-52 0-71 34-72 86" id="ah"/><path d="M175 0L67-191c6 58 2 128 3 191H24v-248h59L193-55c-6-58-2-129-3-193h46V0h-61" id="ai"/><path d="M136-208V0H84v-208H4v-40h212v40h-80" id="aj"/><path d="M240-174c0 40-23 61-54 70L253 0h-59l-57-94H76V0H24v-248c93 4 217-23 216 74zM76-134c48-2 112 12 112-38 0-48-66-32-112-35v73" id="ak"/><g id="r"><use transform="matrix(0.07901246913580244,0,0,0.07901246913580244,0,0)" xlink:href="#ah"/><use transform="matrix(0.07901246913580244,0,0,0.07901246913580244,20.46422950617283,0)" xlink:href="#J"/><use transform="matrix(0.07901246913580244,0,0,0.07901246913580244,42.587720864197514,0)" xlink:href="#ai"/><use transform="matrix(0.07901246913580244,0,0,0.07901246913580244,63.05195037037035,0)" xlink:href="#aj"/><use transform="matrix(0.07901246913580244,0,0,0.07901246913580244,80.35568111111108,0)" xlink:href="#ak"/><use transform="matrix(0.07901246913580244,0,0,0.07901246913580244,100.81991061728391,0)" xlink:href="#J"/><use transform="matrix(0.07901246913580244,0,0,0.07901246913580244,122.9434019753086,0)" xlink:href="#M"/><use transform="matrix(0.07901246913580244,0,0,0.07901246913580244,140.24713271604932,0)" xlink:href="#M"/><use transform="matrix(0.07901246913580244,0,0,0.07901246913580244,157.55086345679007,0)" xlink:href="#L"/><use transform="matrix(0.07901246913580244,0,0,0.07901246913580244,176.51385604938264,0)" xlink:href="#ak"/></g><g id="s"><use transform="matrix(0.05432111111111112,0,0,0.05432111111111112,0,0)" xlink:href="#ac"/><use transform="matrix(0.05432111111111112,0,0,0.05432111111111112,15.209911111111113,0)" xlink:href="#R"/><use transform="matrix(0.05432111111111112,0,0,0.05432111111111112,28.246977777777783,0)" xlink:href="#ag"/></g><path d="M141-36C126-15 110 5 73 4 37 3 15-17 15-53c-1-64 63-63 125-63 3-35-9-54-41-54-24 1-41 7-42 31l-33-3c5-37 33-52 76-52 45 0 72 20 72 64v82c-1 20 7 32 28 27v20c-31 9-61-2-59-35zM48-53c0 20 12 33 32 33 41-3 63-29 60-74-43 2-92-5-92 41" id="al"/><path d="M24 0v-261h32V0H24" id="am"/><g id="t"><use transform="matrix(0.05432111111111112,0,0,0.05432111111111112,0,0)" xlink:href="#al"/><use transform="matrix(0.05432111111111112,0,0,0.05432111111111112,10.864222222222224,0)" xlink:href="#am"/><use transform="matrix(0.05432111111111112,0,0,0.05432111111111112,15.155590000000005,0)" xlink:href="#am"/></g><path d="M115-194c55 1 70 41 70 98S169 2 115 4C84 4 66-9 55-30l1 105H24l-1-265h31l2 30c10-21 28-34 59-34zm-8 174c40 0 45-34 45-75s-6-73-45-74c-42 0-51 32-51 76 0 43 10 73 51 73" id="an"/><path d="M100-194c63 0 86 42 84 106H49c0 40 14 67 53 68 26 1 43-12 49-29l28 8c-11 28-37 45-77 45C44 4 14-33 15-96c1-61 26-98 85-98zm52 81c6-60-76-77-97-28-3 7-6 17-6 28h103" id="ao"/><path d="M100-194c62-1 85 37 85 99 1 63-27 99-86 99S16-35 15-95c0-66 28-99 85-99zM99-20c44 1 53-31 53-75 0-43-8-75-51-75s-53 32-53 75 10 74 51 75" id="ap"/><g id="u"><use transform="matrix(0.05432111111111112,0,0,0.05432111111111112,0,0)" xlink:href="#an"/><use transform="matrix(0.05432111111111112,0,0,0.05432111111111112,10.864222222222224,0)" xlink:href="#ao"/><use transform="matrix(0.05432111111111112,0,0,0.05432111111111112,21.72844444444445,0)" xlink:href="#ap"/><use transform="matrix(0.05432111111111112,0,0,0.05432111111111112,32.59266666666667,0)" xlink:href="#an"/><use transform="matrix(0.05432111111111112,0,0,0.05432111111111112,43.4568888888889,0)" xlink:href="#am"/><use transform="matrix(0.05432111111111112,0,0,0.05432111111111112,47.74825666666668,0)" xlink:href="#ao"/></g><path d="M135-143c-3-34-86-38-87 0 15 53 115 12 119 90S17 21 10-45l28-5c4 36 97 45 98 0-10-56-113-15-118-90-4-57 82-63 122-42 12 7 21 19 24 35" id="aq"/><path d="M59-47c-2 24 18 29 38 22v24C64 9 27 4 27-40v-127H5v-23h24l9-43h21v43h35v23H59v120" id="ar"/><path d="M84 4C-5 8 30-112 23-190h32v120c0 31 7 50 39 49 72-2 45-101 50-169h31l1 190h-30c-1-10 1-25-2-33-11 22-28 36-60 37" id="as"/><path d="M85-194c31 0 48 13 60 33l-1-100h32l1 261h-30c-2-10 0-23-3-31C134-8 116 4 85 4 32 4 16-35 15-94c0-66 23-100 70-100zm9 24c-40 0-46 34-46 75 0 40 6 74 45 74 42 0 51-32 51-76 0-42-9-74-50-73" id="at"/><path d="M117-194c89-4 53 116 60 194h-32v-121c0-31-8-49-39-48C34-167 62-67 57 0H25l-1-190h30c1 10-1 24 2 32 11-22 29-35 61-36" id="au"/><g id="v"><use transform="matrix(0.05432111111111112,0,0,0.05432111111111112,0,0)" xlink:href="#aq"/><use transform="matrix(0.05432111111111112,0,0,0.05432111111111112,9.777800000000001,0)" xlink:href="#ar"/><use transform="matrix(0.05432111111111112,0,0,0.05432111111111112,15.209911111111113,0)" xlink:href="#as"/><use transform="matrix(0.05432111111111112,0,0,0.05432111111111112,26.074133333333336,0)" xlink:href="#at"/><use transform="matrix(0.05432111111111112,0,0,0.05432111111111112,36.93835555555556,0)" xlink:href="#ao"/><use transform="matrix(0.05432111111111112,0,0,0.05432111111111112,47.802577777777785,0)" xlink:href="#au"/><use transform="matrix(0.05432111111111112,0,0,0.05432111111111112,58.66680000000001,0)" xlink:href="#ar"/></g><path d="M115-194c53 0 69 39 70 98 0 66-23 100-70 100C84 3 66-7 56-30L54 0H23l1-261h32v101c10-23 28-34 59-34zm-8 174c40 0 45-34 45-75 0-40-5-75-45-74-42 0-51 32-51 76 0 43 10 73 51 73" id="av"/><path d="M179-190L93 31C79 59 56 82 12 73V49c39 6 53-20 64-50L1-190h34L92-34l54-156h33" id="aw"/><g id="w"><use transform="matrix(0.05432111111111112,0,0,0.05432111111111112,0,0)" xlink:href="#av"/><use transform="matrix(0.05432111111111112,0,0,0.05432111111111112,10.864222222222224,0)" xlink:href="#aw"/></g><g id="x"><use transform="matrix(0.05432111111111112,0,0,0.05432111111111112,0,0)" xlink:href="#Y"/><use transform="matrix(0.05432111111111112,0,0,0.05432111111111112,5.432111111111112,0)" xlink:href="#ae"/></g><g id="y"><use transform="matrix(0.05432111111111112,0,0,0.05432111111111112,0,0)" xlink:href="#P"/><use transform="matrix(0.05432111111111112,0,0,0.05432111111111112,13.037066666666668,0)" xlink:href="#ae"/><use transform="matrix(0.05432111111111112,0,0,0.05432111111111112,27.106234444444446,0)" xlink:href="#ae"/></g><g id="z"><use transform="matrix(0.05432111111111112,0,0,0.05432111111111112,0,0)" xlink:href="#aq"/><use transform="matrix(0.05432111111111112,0,0,0.05432111111111112,9.777800000000001,0)" xlink:href="#ar"/><use transform="matrix(0.05432111111111112,0,0,0.05432111111111112,15.209911111111113,0)" xlink:href="#as"/><use transform="matrix(0.05432111111111112,0,0,0.05432111111111112,26.074133333333336,0)" xlink:href="#at"/><use transform="matrix(0.05432111111111112,0,0,0.05432111111111112,36.93835555555556,0)" xlink:href="#ao"/><use transform="matrix(0.05432111111111112,0,0,0.05432111111111112,47.802577777777785,0)" xlink:href="#au"/><use transform="matrix(0.05432111111111112,0,0,0.05432111111111112,58.66680000000001,0)" xlink:href="#ar"/></g><g id="A"><use transform="matrix(0.05432111111111112,0,0,0.05432111111111112,0,0)" xlink:href="#S"/><use transform="matrix(0.05432111111111112,0,0,0.05432111111111112,14.06916777777778,0)" xlink:href="#aa"/><use transform="matrix(0.05432111111111112,0,0,0.05432111111111112,27.106234444444446,0)" xlink:href="#ae"/><use transform="matrix(0.05432111111111112,0,0,0.05432111111111112,41.175402222222225,0)" xlink:href="#P"/><use transform="matrix(0.05432111111111112,0,0,0.05432111111111112,52.74579888888889,0)" xlink:href="#ag"/><use transform="matrix(0.05432111111111112,0,0,0.05432111111111112,64.64212222222223,0)" xlink:href="#R"/></g><g id="B"><use transform="matrix(0.05432111111111112,0,0,0.05432111111111112,0,0)" xlink:href="#ae"/><use transform="matrix(0.05432111111111112,0,0,0.05432111111111112,14.06916777777778,0)" xlink:href="#R"/><use transform="matrix(0.05432111111111112,0,0,0.05432111111111112,27.106234444444446,0)" xlink:href="#Z"/><use transform="matrix(0.05432111111111112,0,0,0.05432111111111112,37.97045666666667,0)" xlink:href="#R"/><use transform="matrix(0.05432111111111112,0,0,0.05432111111111112,51.00752333333334,0)" xlink:href="#ag"/><use transform="matrix(0.05432111111111112,0,0,0.05432111111111112,62.903846666666674,0)" xlink:href="#R"/></g><g id="C"><use transform="matrix(0.05432111111111112,0,0,0.05432111111111112,0,0)" xlink:href="#T"/><use transform="matrix(0.05432111111111112,0,0,0.05432111111111112,13.037066666666668,0)" xlink:href="#R"/><use transform="matrix(0.05432111111111112,0,0,0.05432111111111112,26.074133333333336,0)" xlink:href="#P"/><use transform="matrix(0.05432111111111112,0,0,0.05432111111111112,39.111200000000004,0)" xlink:href="#V"/><use transform="matrix(0.05432111111111112,0,0,0.05432111111111112,53.18036777777778,0)" xlink:href="#W"/><use transform="matrix(0.05432111111111112,0,0,0.05432111111111112,67.24953555555557,0)" xlink:href="#X"/></g><path d="M147 0H94L2-248h55l64 206c17-72 42-137 63-206h54" id="ax"/><path d="M24 0v-248h52V0H24" id="ay"/><path d="M275 0h-61l-44-196L126 0H64L0-248h53L97-49l45-199h58l43 199 44-199h52" id="az"/><g id="D"><use transform="matrix(0.07283962962962962,0,0,0.07283962962962962,0,0)" xlink:href="#ax"/><use transform="matrix(0.07283962962962962,0,0,0.07283962962962962,17.481511111111107,0)" xlink:href="#ay"/><use transform="matrix(0.07283962962962962,0,0,0.07283962962962962,24.76547407407407,0)" xlink:href="#L"/><use transform="matrix(0.07283962962962962,0,0,0.07283962962962962,42.24698518518519,0)" xlink:href="#az"/></g><g id="E"><use transform="matrix(0.05432111111111112,0,0,0.05432111111111112,0,0)" xlink:href="#X"/><use transform="matrix(0.05432111111111112,0,0,0.05432111111111112,14.06916777777778,0)" xlink:href="#ag"/><use transform="matrix(0.05432111111111112,0,0,0.05432111111111112,25.965491111111113,0)" xlink:href="#Q"/><use transform="matrix(0.05432111111111112,0,0,0.05432111111111112,42.207503333333335,0)" xlink:href="#Z"/></g><g id="F"><use transform="matrix(0.05432111111111112,0,0,0.05432111111111112,0,0)" xlink:href="#af"/><use transform="matrix(0.05432111111111112,0,0,0.05432111111111112,9.777800000000001,0)" xlink:href="#T"/><use transform="matrix(0.05432111111111112,0,0,0.05432111111111112,22.814866666666667,0)" xlink:href="#ab"/><use transform="matrix(0.05432111111111112,0,0,0.05432111111111112,38.02477777777778,0)" xlink:href="#O"/></g><g id="G"><use transform="matrix(0.05432111111111112,0,0,0.05432111111111112,0,0)" xlink:href="#af"/><use transform="matrix(0.05432111111111112,0,0,0.05432111111111112,9.777800000000001,0)" xlink:href="#T"/><use transform="matrix(0.05432111111111112,0,0,0.05432111111111112,22.814866666666667,0)" xlink:href="#aa"/></g><path d="M137-103V0h-34v-103L8-248h37l75 118 75-118h37" id="aA"/><path d="M63-220v92h138v28H63V0H30v-248h175v28H63" id="aB"/><g id="H"><use transform="matrix(0.05432111111111112,0,0,0.05432111111111112,0,0)" xlink:href="#ag"/><use transform="matrix(0.05432111111111112,0,0,0.05432111111111112,11.896323333333335,0)" xlink:href="#X"/><use transform="matrix(0.05432111111111112,0,0,0.05432111111111112,25.965491111111113,0)" xlink:href="#aA"/><use transform="matrix(0.05432111111111112,0,0,0.05432111111111112,39.00255777777778,0)" xlink:href="#Q"/><use transform="matrix(0.05432111111111112,0,0,0.05432111111111112,55.24457000000001,0)" xlink:href="#R"/><use transform="matrix(0.05432111111111112,0,0,0.05432111111111112,68.28163666666669,0)" xlink:href="#Z"/><use transform="matrix(0.05432111111111112,0,0,0.05432111111111112,79.14585888888891,0)" xlink:href="#R"/><use transform="matrix(0.05432111111111112,0,0,0.05432111111111112,92.18292555555558,0)" xlink:href="#P"/><use transform="matrix(0.05432111111111112,0,0,0.05432111111111112,105.21999222222226,0)" xlink:href="#aB"/></g></defs></g></svg>